<svg width="277" height="54" viewBox="0 0 277 54" fill="none" xmlns="http://www.w3.org/2000/svg">
<path d="M56.0113 53.2919C53.2944 53.2919 50.985 52.7861 49.0831 51.7746C47.2152 50.763 45.7888 49.3637 44.804 47.5766C43.8191 45.7896 43.3266 43.7327 43.3266 41.4062C43.3266 39.1808 43.904 37.1745 45.0587 35.3874C46.2134 33.6004 47.7586 32.1842 49.6944 31.1389C51.6303 30.0599 53.7868 29.5204 56.1641 29.5204C59.3565 29.5204 61.9716 30.4477 64.0093 32.3022C66.0809 34.123 67.4224 36.7699 68.0338 40.2429L50.7133 45.7053L49.1341 41.8614L61.6659 37.6634L60.1886 38.3209C59.9169 37.4443 59.4245 36.6856 58.7113 36.045C58.032 35.3706 56.9962 35.0334 55.6038 35.0334C54.551 35.0334 53.617 35.2863 52.8019 35.7921C52.0208 36.2641 51.4095 36.9553 50.968 37.8657C50.5605 38.7424 50.3567 39.7877 50.3567 41.0016C50.3567 42.384 50.6114 43.5473 51.1208 44.4914C51.6303 45.4018 52.3265 46.093 53.2095 46.5651C54.0925 47.0372 55.0774 47.2732 56.1641 47.2732C56.9453 47.2732 57.6924 47.1383 58.4056 46.8686C59.1528 46.5988 59.8829 46.2448 60.5961 45.8064L63.7546 51.0665C62.5659 51.7409 61.2754 52.2804 59.8829 52.685C58.5245 53.0896 57.2339 53.2919 56.0113 53.2919Z" fill="#151515"/>
<path d="M79.6351 30.5826L80.2974 36.6519L80.1445 35.7415C80.7898 34.4265 81.6728 33.3138 82.7935 32.4034C83.9143 31.4593 85.018 30.7343 86.1048 30.2285C87.2255 29.7228 88.0746 29.4699 88.6519 29.4699L88.2953 36.5507C86.6312 36.3484 85.2048 36.6182 84.0162 37.36C82.8275 38.1018 81.9105 39.0796 81.2653 40.2935C80.62 41.5073 80.2974 42.7549 80.2974 44.0362V52.685H73.2164V30.5826H79.6351Z" fill="#151515"/>
<path d="M110.005 30.5826L114.895 41.9625L113.571 42.0637L117.85 30.5826H124.778L114.742 54L107.611 39.3325L101.09 54L90.9523 30.5826H97.8805L103.28 42.8729L100.835 42.5189L105.114 33.1115L103.943 30.5826H110.005Z" fill="#151515"/>
<path d="M139.141 53.2919C136.424 53.2919 134.115 52.7861 132.213 51.7746C130.345 50.763 128.919 49.3637 127.934 47.5766C126.949 45.7896 126.456 43.7327 126.456 41.4062C126.456 39.1808 127.034 37.1745 128.189 35.3874C129.343 33.6004 130.888 32.1842 132.824 31.1389C134.76 30.0599 136.917 29.5204 139.294 29.5204C142.486 29.5204 145.101 30.4477 147.139 32.3022C149.211 34.123 150.552 36.7699 151.164 40.2429L133.843 45.7053L132.264 41.8614L144.796 37.6634L143.318 38.3209C143.047 37.4443 142.554 36.6856 141.841 36.045C141.162 35.3706 140.126 35.0334 138.734 35.0334C137.681 35.0334 136.747 35.2863 135.932 35.7921C135.151 36.2641 134.539 36.9553 134.098 37.8657C133.69 38.7424 133.487 39.7877 133.487 41.0016C133.487 42.384 133.741 43.5473 134.251 44.4914C134.76 45.4018 135.456 46.093 136.339 46.5651C137.222 47.0372 138.207 47.2732 139.294 47.2732C140.075 47.2732 140.822 47.1383 141.535 46.8686C142.283 46.5988 143.013 46.2448 143.726 45.8064L146.884 51.0665C145.696 51.7409 144.405 52.2804 143.013 52.685C141.654 53.0896 140.364 53.2919 139.141 53.2919Z" fill="#151515"/>
<path d="M162.765 30.5826L163.427 36.6519L163.274 35.7415C163.92 34.4265 164.803 33.3138 165.923 32.4034C167.044 31.4593 168.148 30.7343 169.235 30.2285C170.355 29.7228 171.204 29.4699 171.782 29.4699L171.425 36.5507C169.761 36.3484 168.335 36.6182 167.146 37.36C165.957 38.1018 165.04 39.0796 164.395 40.2935C163.75 41.5073 163.427 42.7549 163.427 44.0362V52.685H156.346V30.5826H162.765Z" fill="#151515"/>
<path d="M179.329 20.8717H186.461V30.4814H191.861V35.9944H186.461V52.685H179.329V35.9944H175.865V30.4814H179.329V20.8717Z" fill="#151515"/>
<path d="M209.465 15.4599C213.37 15.4599 216.478 16.2523 218.787 17.837C221.096 19.3881 222.251 21.7146 222.251 24.8167C222.251 27.1096 221.674 29.0315 220.519 30.5826C219.398 32.0999 217.853 33.2463 215.883 34.0219C213.947 34.7637 211.723 35.1346 209.21 35.1346L208.038 31.1895C211.129 31.1895 213.863 31.611 216.24 32.4539C218.651 33.2969 220.553 34.5108 221.945 36.0955C223.338 37.6466 224.034 39.5179 224.034 41.7096C224.034 43.7327 223.661 45.4524 222.913 46.8686C222.2 48.251 221.215 49.3806 219.959 50.2573C218.736 51.1002 217.344 51.724 215.781 52.1286C214.219 52.4995 212.606 52.685 210.942 52.685H198.461V15.4599H209.465ZM210.331 30.6837C211.791 30.6837 212.861 30.2454 213.54 29.3687C214.253 28.492 214.61 27.4973 214.61 26.3846C214.61 25.1033 214.168 24.1424 213.285 23.5017C212.436 22.8611 211.281 22.5407 209.821 22.5407H205.848V30.6837H210.331ZM210.585 45.857C211.672 45.857 212.657 45.7221 213.54 45.4524C214.423 45.1489 215.119 44.6937 215.629 44.0868C216.138 43.4461 216.393 42.6538 216.393 41.7096C216.393 40.6307 216.087 39.8214 215.476 39.2819C214.864 38.7087 214.066 38.3209 213.081 38.1186C212.131 37.8826 211.129 37.7646 210.076 37.7646H205.848V45.857H210.585Z" fill="#151515"/>
<path d="M239.646 53.2919C237.574 53.2919 235.689 52.8873 233.991 52.078C232.327 51.2351 231.003 49.9538 230.018 48.2342C229.033 46.5145 228.541 44.3228 228.541 41.6591C228.541 39.1639 229.05 37.0059 230.069 35.1851C231.088 33.3643 232.429 31.965 234.093 30.9872C235.757 29.9756 237.523 29.4699 239.391 29.4699C241.599 29.4699 243.263 29.8408 244.384 30.5826C245.538 31.2907 246.489 32.083 247.236 32.9597L246.931 33.8195L247.593 30.5826H254.216V52.685H247.084V47.8801L247.644 49.3974C247.576 49.3974 247.372 49.5998 247.033 50.0044C246.693 50.3753 246.184 50.8305 245.504 51.37C244.859 51.8757 244.044 52.3141 243.059 52.685C242.108 53.0896 240.971 53.2919 239.646 53.2919ZM241.684 47.5261C242.533 47.5261 243.297 47.4081 243.976 47.172C244.655 46.9023 245.25 46.5314 245.759 46.0593C246.269 45.5535 246.71 44.9297 247.084 44.1879V38.7761C246.812 38.0343 246.404 37.4106 245.861 36.9048C245.318 36.3653 244.672 35.9607 243.925 35.6909C243.178 35.3874 242.346 35.2357 241.429 35.2357C240.41 35.2357 239.459 35.5055 238.576 36.045C237.727 36.5507 237.048 37.2588 236.538 38.1692C236.029 39.0796 235.774 40.1249 235.774 41.305C235.774 42.4852 236.046 43.5473 236.589 44.4914C237.133 45.4355 237.846 46.1773 238.729 46.7168C239.646 47.2563 240.631 47.5261 241.684 47.5261Z" fill="#151515"/>
<path d="M267.983 30.5826L268.645 36.6519L268.493 35.7415C269.138 34.4265 270.021 33.3138 271.142 32.4034C272.262 31.4593 273.366 30.7343 274.453 30.2285C275.574 29.7228 276.423 29.4699 277 29.4699L276.643 36.5507C274.979 36.3484 273.553 36.6182 272.364 37.36C271.176 38.1018 270.259 39.0796 269.613 40.2935C268.968 41.5073 268.645 42.7549 268.645 44.0362V52.685H261.564V30.5826H267.983Z" fill="#151515"/>
<path d="M49.4152 4.31185C49.6937 3.89425 49.8536 3.40885 49.878 2.90743C49.9023 2.406 49.7901 1.90738 49.5535 1.46474C49.3168 1.0221 48.9644 0.652063 48.534 0.394099C48.1036 0.136135 47.6113 -7.51003e-05 47.1096 3.10641e-08H2.7698C2.26853 0.000259133 1.77671 0.136559 1.34674 0.394383C0.916759 0.652207 0.564722 1.0219 0.32812 1.46408C0.091519 1.90627 -0.0207863 2.40439 0.00316605 2.90539C0.0271184 3.40639 0.186431 3.89151 0.464136 4.30908L22.1685 36.8878V47.1392H13.8547V52.685H36.0246V47.1392H27.7109V36.8878L49.4152 4.31185ZM41.9329 5.54579L36.3904 13.8645H13.4889L7.94647 5.54579H41.9329Z" fill="#151515"/>
</svg>
