<svg width="39" height="36" viewBox="0 0 39 36" fill="none" xmlns="http://www.w3.org/2000/svg">
<path d="M36.7762 12.6766L25.3832 11.0342L20.2902 0.792305C20.1511 0.511888 19.9222 0.284884 19.6395 0.146901C18.9306 -0.200281 18.069 0.0890376 17.7145 0.792305L12.6215 11.0342L1.22853 12.6766C0.914423 12.7211 0.627241 12.868 0.407368 13.0906C0.141554 13.3616 -0.00492205 13.7262 0.000126297 14.1043C0.00517465 14.4823 0.161334 14.843 0.434291 15.1069L8.67729 23.0787L6.72984 34.3355C6.68417 34.5973 6.71339 34.8666 6.81417 35.1129C6.91495 35.3591 7.08326 35.5724 7.30002 35.7285C7.51679 35.8847 7.77333 35.9775 8.04055 35.9964C8.30778 36.0153 8.575 35.9596 8.81191 35.8355L19.0024 30.5209L29.1928 35.8355C29.471 35.9824 29.7941 36.0313 30.1037 35.9779C30.8845 35.8444 31.4095 35.11 31.2749 34.3355L29.3274 23.0787L37.5704 15.1069C37.7948 14.8888 37.9429 14.6039 37.9877 14.2924C38.1089 13.5134 37.5614 12.7924 36.7762 12.6766Z" fill="#151515"/>
</svg>
