<svg width="52" height="63" viewBox="0 0 52 63" fill="none" xmlns="http://www.w3.org/2000/svg">
<path d="M4.37695 0.75C3.35753 0.75 2.37985 1.15496 1.65901 1.87581C0.938168 2.59665 0.533203 3.57432 0.533203 4.59375C0.533203 5.61318 0.938168 6.59085 1.65901 7.31169C2.37985 8.03254 3.35753 8.4375 4.37695 8.4375H47.9395C48.9589 8.4375 49.9366 8.03254 50.6574 7.31169C51.3782 6.59085 51.7832 5.61318 51.7832 4.59375C51.7832 3.57432 51.3782 2.59665 50.6574 1.87581C49.9366 1.15496 48.9589 0.75 47.9395 0.75H4.37695ZM28.8745 14.69C28.1537 13.9702 27.1768 13.5659 26.1582 13.5659C25.1396 13.5659 24.1627 13.9702 23.442 14.69L6.7857 31.3462C6.10674 32.0749 5.73711 33.0386 5.75468 34.0344C5.77225 35.0302 6.17565 35.9803 6.87989 36.6846C7.58413 37.3888 8.53423 37.7922 9.53002 37.8098C10.5258 37.8273 11.4896 37.4577 12.2182 36.7787L22.3145 26.6825V58.4062C22.3145 59.4257 22.7194 60.4033 23.4403 61.1242C24.1611 61.845 25.1388 62.25 26.1582 62.25C27.1776 62.25 28.1553 61.845 28.8761 61.1242C29.597 60.4033 30.002 59.4257 30.002 58.4062V26.6825L40.0982 36.7787C40.4501 37.1564 40.8744 37.4593 41.3459 37.6694C41.8174 37.8795 42.3264 37.9924 42.8425 38.0015C43.3586 38.0106 43.8713 37.9157 44.3499 37.7224C44.8285 37.5291 45.2633 37.2413 45.6283 36.8763C45.9933 36.5113 46.281 36.0766 46.4743 35.5979C46.6677 35.1193 46.7626 34.6067 46.7535 34.0906C46.7444 33.5745 46.6314 33.0655 46.4213 32.594C46.2112 32.1225 45.9083 31.6981 45.5307 31.3462L28.8745 14.69Z" fill="#151515"/>
</svg>
