<svg width="50" height="42" viewBox="0 0 50 42" fill="none" xmlns="http://www.w3.org/2000/svg">
<path d="M6.80272 35.2191C11.597 35.2191 15.4195 33.3757 18.2702 29.6889C18.2702 29.4301 18.1082 29.2037 17.7843 29.0097L15.9378 25.3229C15.0956 27.0693 13.8484 28.4761 12.1963 29.5433C10.5442 30.6106 8.74636 31.1442 6.80272 31.1442H2.04082C1.52251 31.1442 1.0528 31.3544 0.631681 31.7748C0.21056 32.1953 0 32.6642 0 33.1817C0 33.6991 0.21056 34.1681 0.631681 34.5885C1.0528 35.0089 1.52251 35.2191 2.04082 35.2191H6.80272ZM42.9543 0.679157C41.9177 -0.226386 40.9459 -0.226386 40.0389 0.679157C39.0671 1.64938 39.0671 2.61961 40.0389 3.58983L42.6628 6.30646H34.5967C29.8672 6.30646 26.0771 8.14988 23.2264 11.8367C23.2264 12.0308 23.356 12.2572 23.6152 12.5159L25.4616 16.2027C26.3039 14.4563 27.551 13.0495 29.2031 11.9823C30.8552 10.915 32.6531 10.3814 34.5967 10.3814H42.6628L40.0389 13.098C39.0671 14.0683 39.0671 15.0385 40.0389 16.0087C40.4276 16.3968 40.9135 16.5908 41.4966 16.5908C41.9501 16.5908 42.436 16.3968 42.9543 16.0087L49.174 9.79926C50.0162 8.82904 50.0162 7.85882 49.174 6.88859L42.9543 0.679157ZM42.9543 25.5169C41.9177 24.6114 40.9459 24.6114 40.0389 25.5169C39.0671 26.4871 39.0671 27.4573 40.0389 28.4276L42.6628 31.1442H34.5967C32.6531 31.1442 30.839 30.6106 29.1545 29.5433C27.47 28.4761 26.1743 27.0693 25.2672 25.3229L23.0321 20.7628L20.6997 16.2027L19.7279 14.3593C18.5617 11.9014 16.8124 9.9448 14.4801 8.48946C12.1477 7.03413 9.5886 6.30646 6.80272 6.30646H2.04082C1.52251 6.30646 1.0528 6.51667 0.631681 6.9371C0.21056 7.35753 0 7.82647 0 8.34393C0 8.86138 0.21056 9.33032 0.631681 9.75075C1.0528 10.1712 1.52251 10.3814 2.04082 10.3814H6.80272C10.9491 10.3814 14.059 12.3218 16.1322 16.2027L18.4645 20.7628L20.6997 25.3229L21.7687 27.1663C23.0645 29.6242 24.8623 31.5808 27.1623 33.0361C29.4623 34.4915 32.0052 35.2191 34.7911 35.2191H42.9543L40.2332 37.9358C39.2614 38.906 39.2614 39.8762 40.2332 40.8464C40.622 41.2345 41.1079 41.4286 41.691 41.4286C42.2093 41.4286 42.6952 41.2345 43.1487 40.8464L49.3683 34.637C50.2106 33.6668 50.2106 32.6966 49.3683 31.7263L42.9543 25.5169Z" fill="#151515"/>
</svg>
