<svg width="84" height="75" viewBox="0 0 84 75" fill="none" xmlns="http://www.w3.org/2000/svg">
<path d="M81.6939 15.3698C80.3949 12.3621 78.5219 9.63654 76.1798 7.34573C73.8359 5.04809 71.0723 3.22219 68.0395 1.96731C64.8946 0.660917 61.5215 -0.00776999 58.116 6.81158e-05C53.3385 6.81158e-05 48.6772 1.30833 44.6264 3.7795C43.6573 4.37064 42.7367 5.01993 41.8645 5.72736C40.9923 5.01993 40.0717 4.37064 39.1026 3.7795C35.0518 1.30833 30.3905 6.81158e-05 25.6129 6.81158e-05C22.1727 6.81158e-05 18.839 0.659046 15.6895 1.96731C12.6466 3.22712 9.90405 5.03931 7.54917 7.34573C5.20396 9.63396 3.33053 12.3601 2.03508 15.3698C0.688051 18.4999 0 21.8239 0 25.2447C0 28.4718 0.658978 31.8345 1.96724 35.2554C3.06231 38.1142 4.63223 41.0796 6.63823 44.0741C9.81683 48.8129 14.1874 53.7552 19.6143 58.7654C28.6074 67.0705 37.5133 72.8074 37.8912 73.04L40.188 74.513C41.2055 75.1623 42.5138 75.1623 43.5313 74.513L45.828 73.04C46.206 72.7978 55.1022 67.0705 64.105 58.7654C69.5319 53.7552 73.9024 48.8129 77.081 44.0741C79.0871 41.0796 80.6667 38.1142 81.752 35.2554C83.0603 31.8345 83.7193 28.4718 83.7193 25.2447C83.729 21.8239 83.0409 18.4999 81.6939 15.3698Z" fill="#9672FF"/>
</svg>
