<svg width="84" height="75" viewBox="0 0 84 75" fill="none" xmlns="http://www.w3.org/2000/svg">
<path d="M81.8347 15.3698C80.5334 12.3621 78.6572 9.63654 76.3111 7.34573C73.9631 5.04809 71.1948 3.22219 68.1567 1.96731C65.0064 0.660917 61.6275 -0.00776999 58.2162 6.81158e-05C53.4304 6.81158e-05 48.761 1.30833 44.7033 3.7795C43.7325 4.37064 42.8103 5.01993 41.9366 5.72736C41.0629 5.01993 40.1407 4.37064 39.17 3.7795C35.1122 1.30833 30.4429 6.81158e-05 25.6571 6.81158e-05C22.2109 6.81158e-05 18.8715 0.659046 15.7165 1.96731C12.6684 3.22712 9.92112 5.03931 7.56218 7.34573C5.21292 9.63396 3.33627 12.3601 2.03859 15.3698C0.689236 18.4999 0 21.8239 0 25.2447C0 28.4718 0.660114 31.8345 1.97063 35.2554C3.06759 38.1142 4.64021 41.0796 6.64967 44.0741C9.83375 48.8129 14.2119 53.7552 19.6481 58.7654C28.6567 67.0705 37.5779 72.8074 37.9565 73.04L40.2572 74.513C41.2765 75.1623 42.587 75.1623 43.6063 74.513L45.907 73.04C46.2856 72.7978 55.1971 67.0705 64.2154 58.7654C69.6517 53.7552 74.0298 48.8129 77.2139 44.0741C79.2233 41.0796 80.8056 38.1142 81.8929 35.2554C83.2034 31.8345 83.8635 28.4718 83.8635 25.2447C83.8732 21.8239 83.184 18.4999 81.8347 15.3698ZM41.9366 66.8476C41.9366 66.8476 7.37774 44.7427 7.37774 25.2447C7.37774 15.3698 15.5612 7.36512 25.6571 7.36512C32.7533 7.36512 38.9079 11.319 41.9366 17.0947C44.9654 11.319 51.12 7.36512 58.2162 7.36512C68.312 7.36512 76.4955 15.3698 76.4955 25.2447C76.4955 44.7427 41.9366 66.8476 41.9366 66.8476Z" fill="#151515"/>
</svg>
