<svg width="99" height="113" viewBox="0 0 99 113" fill="none" xmlns="http://www.w3.org/2000/svg">
<path d="M15.3271 15.884C14.7182 15.8764 14.1269 15.6814 13.6352 15.3262C13.1436 14.9711 12.7759 14.4733 12.5834 13.9021C12.3908 13.3309 12.3829 12.7146 12.5608 12.1387C12.7386 11.5628 13.0934 11.056 13.5758 10.6887C24.0805 3.33963 36.7312 -0.402762 49.5914 0.0343721C59.7184 0.0343721 74.2618 1.72852 85.7594 9.89806C86.3881 10.3441 86.813 11.0179 86.9414 11.7726C87.0698 12.5272 86.8912 13.3014 86.4446 13.9264C85.9809 14.5447 85.2902 14.9582 84.5211 15.078C83.7521 15.1977 82.9663 15.0139 82.3329 14.5664C72.5695 8.43057 61.1518 5.37162 49.5914 5.79446C38.05 5.40672 26.6934 8.73614 17.2307 15.2817C16.6919 15.7058 16.0147 15.92 15.3271 15.884Z" fill="#151515"/>
<path d="M96.1529 42.4256C95.6821 42.4214 95.2191 42.3065 94.8021 42.0905C94.3851 41.8745 94.026 41.5635 93.7544 41.1833C87.168 31.9972 75.4039 19.7617 49.5914 19.7617C41.0091 19.548 32.5015 21.3875 24.7925 25.1237C17.0835 28.8599 10.4013 34.3823 5.31428 41.2209C4.85745 41.8367 4.17331 42.2494 3.41053 42.3692C2.64776 42.4891 1.86797 42.3064 1.24062 41.8609C0.911522 41.6344 0.633615 41.3428 0.424533 41.0045C0.215451 40.6661 0.0797583 40.2885 0.026063 39.8956C-0.0276323 39.5027 0.00184203 39.103 0.112616 38.722C0.223391 38.3409 0.413047 37.9868 0.669553 37.682C6.30927 30.1481 13.697 24.0645 22.2108 19.9435C30.7245 15.8225 40.115 13.7847 49.5914 14.0017C70.9495 14.0017 86.9396 21.8324 98.4752 37.8703C98.918 38.4998 99.0904 39.2772 98.9548 40.0321C98.8193 40.7871 98.3867 41.4582 97.7519 41.8986C97.2806 42.2214 96.7258 42.4042 96.1529 42.4256Z" fill="#151515"/>
<path d="M35.4288 112.977C34.8382 112.974 34.2619 112.797 33.7736 112.469C33.2854 112.14 32.9073 111.675 32.6877 111.133C32.5355 110.778 32.4582 110.396 32.4608 110.011C32.4633 109.626 32.5456 109.245 32.7025 108.892C32.8595 108.54 33.0877 108.222 33.3732 107.96C33.6588 107.698 33.9955 107.496 34.3628 107.368C51.0001 101.043 61.0129 88.0923 61.0129 72.6944C61.1266 71.1824 60.9092 69.6639 60.3754 68.2426C59.8417 66.8213 59.0042 65.5306 57.92 64.4585C56.8359 63.3864 55.5306 62.5582 54.0933 62.0304C52.656 61.5026 51.1204 61.2876 49.5914 61.4001C42.5101 61.4001 39.0837 65.1648 38.17 74.012C37.7451 78.15 35.7149 81.964 32.506 84.6528C29.2971 87.3416 25.1592 88.6959 20.9617 88.4311C18.7044 88.4635 16.465 88.0307 14.3862 87.1602C12.3074 86.2896 10.4347 85.0005 8.88746 83.3749C7.34022 81.7492 6.15235 79.8227 5.39951 77.7181C4.64666 75.6135 4.34535 73.3769 4.51477 71.1508C4.72515 59.511 9.58288 48.4259 18.0279 40.3148C26.4728 32.2036 37.8194 27.7249 49.5914 27.856C61.662 27.8558 73.2422 32.5793 81.8023 40.9948C90.3624 49.4102 95.2068 60.8337 95.2772 72.7697C95.0085 81.1741 93.2161 89.4626 89.9853 97.2406C89.6751 97.9343 89.1056 98.4824 88.3959 98.7702C87.6862 99.0579 86.8915 99.0629 86.1781 98.7842C85.8243 98.6401 85.5029 98.428 85.2325 98.1602C84.9621 97.8923 84.7481 97.5742 84.603 97.224C84.4578 96.8739 84.3843 96.4987 84.3867 96.1203C84.3892 95.7419 84.4675 95.3677 84.6172 95.0194C87.5407 87.9421 89.1775 80.4099 89.4523 72.7697C89.4019 62.3552 85.1776 52.3853 77.7056 45.0458C70.2335 37.7063 60.1233 33.596 49.5914 33.6161C44.4953 33.5163 39.4293 34.4115 34.6835 36.2506C29.9377 38.0896 25.6054 40.8363 21.9346 44.3333C18.2637 47.8303 15.3266 52.0091 13.2912 56.6302C11.2559 61.2513 10.1623 66.2241 10.0732 71.2638C9.91716 72.7285 10.0766 74.2093 10.5411 75.6086C11.0056 77.008 11.7646 78.2942 12.7681 79.3826C13.7716 80.4709 14.9968 81.3367 16.3631 81.923C17.7295 82.5093 19.2059 82.8027 20.6952 82.7839C22.0662 82.9188 23.4507 82.7837 24.7686 82.3864C26.0866 81.9892 27.3119 81.3378 28.3738 80.4697C29.4357 79.6016 30.3132 78.5341 30.9556 77.3288C31.598 76.1235 31.9926 74.8043 32.1166 73.4473C33.4872 61.7389 39.3121 55.7906 49.4772 55.7906C51.7808 55.6754 54.0831 56.0418 56.2339 56.8659C58.3847 57.6899 60.3356 58.9531 61.9594 60.5731C63.5831 62.193 64.8433 64.1332 65.6577 66.2672C66.472 68.4012 66.8223 70.681 66.6855 72.9579C66.6855 90.8029 55.2641 105.787 36.2283 112.977C35.9627 113.008 35.6945 113.008 35.4288 112.977Z" fill="#151515"/>
<path d="M63.9444 110.267C63.2152 110.255 62.5138 109.988 61.9647 109.514C61.693 109.248 61.4774 108.931 61.3302 108.582C61.183 108.233 61.1073 107.859 61.1073 107.481C61.1073 107.103 61.183 106.728 61.3302 106.379C61.4774 106.031 61.693 105.714 61.9647 105.448C70.53 96.6681 75.3551 84.9687 75.442 72.7697C75.442 66.8966 73.6145 47.734 49.9341 47.734C46.4835 47.6139 43.0434 48.1747 39.8143 49.3834C36.5853 50.5921 33.632 52.4247 31.1267 54.7741C28.8852 56.9672 27.1132 59.584 25.9162 62.4688C24.7192 65.3535 24.1219 68.447 24.1597 71.5649C24.1497 72.3272 23.8364 73.0549 23.2877 73.5905C22.739 74.126 21.9991 74.4262 21.2282 74.4262C20.845 74.4312 20.4647 74.3608 20.1092 74.2193C19.7537 74.0777 19.4303 73.8677 19.1575 73.6016C18.8848 73.3354 18.6683 73.0183 18.5205 72.6686C18.3727 72.319 18.2966 71.9439 18.2967 71.5649C18.2373 67.708 18.954 63.878 20.4049 60.2974C21.8559 56.7168 24.0122 53.4572 26.7485 50.7081C29.7817 47.8293 33.3628 45.5748 37.2841 44.0755C41.2054 42.5761 45.3887 41.8618 49.5914 41.9739C72.7389 41.9739 80.9623 58.5388 80.9623 72.7697C80.9126 86.3488 75.5984 99.3921 66.1145 109.213C65.8527 109.535 65.5228 109.796 65.1478 109.978C64.7729 110.16 64.3621 110.259 63.9444 110.267Z" fill="#151515"/>
<path d="M21.6469 100.704C19.6624 100.7 17.6797 100.587 15.7078 100.365C15.3278 100.323 14.9599 100.208 14.6252 100.025C14.2904 99.8425 13.9952 99.5965 13.7566 99.3011C13.518 99.0057 13.3405 98.6667 13.2344 98.3035C13.1282 97.9403 13.0955 97.5599 13.138 97.1842C13.1805 96.8084 13.2974 96.4446 13.4821 96.1136C13.6667 95.7825 13.9155 95.4907 14.2143 95.2547C14.513 95.0187 14.8558 94.8433 15.2231 94.7383C15.5904 94.6333 15.975 94.6009 16.355 94.643C25.8348 95.6971 33.2968 94.0406 38.5888 89.6735C41.0281 87.5163 43.0007 84.8933 44.3878 81.9624C45.7749 79.0314 46.5478 75.8532 46.6599 72.6191C46.6788 72.2378 46.7756 71.8644 46.9445 71.5212C47.1135 71.178 47.351 70.8723 47.6428 70.6224C47.9346 70.3726 48.2746 70.1838 48.6422 70.0676C49.0099 69.9513 49.3975 69.91 49.7818 69.9461C50.5493 70.004 51.264 70.3543 51.7754 70.9232C52.2868 71.4921 52.5548 72.2351 52.5229 72.9955C52.3625 77.0222 51.3752 80.9745 49.6212 84.6119C47.8671 88.2493 45.3829 91.4957 42.3198 94.1535C36.4432 98.7123 29.1085 101.036 21.6469 100.704Z" fill="#151515"/>
</svg>
