<svg width="49" height="46" viewBox="0 0 49 46" fill="none" xmlns="http://www.w3.org/2000/svg">
<path d="M48.3379 22.6919C48.337 22.2952 48.2228 21.9071 48.0089 21.573C47.7949 21.239 47.49 20.9731 47.13 20.8064L2.93812 0.183495C2.55262 0.0100179 2.12347 -0.0420757 1.70767 0.0341334C1.29186 0.110343 0.90908 0.311247 0.610164 0.610163C0.311247 0.90908 0.110343 1.29186 0.0341337 1.70767C-0.0420754 2.12347 0.0100168 2.55263 0.183494 2.93812L8.66834 22.7361L0.183494 42.5341C0.0225629 42.9076 -0.0255285 43.32 0.0451468 43.7205C0.115822 44.121 0.302174 44.492 0.581222 44.7879C0.88501 45.0794 1.27003 45.2721 1.68552 45.3405C2.10101 45.4089 2.52746 45.3497 2.90866 45.1708L47.1006 24.548C47.4615 24.3877 47.7695 24.1281 47.9886 23.7995C48.2077 23.4709 48.3288 23.0868 48.3379 22.6919ZM6.17886 39.1902L12.3805 24.7689H26.4924V20.6149H12.2626L6.17886 6.19359L41.3262 22.6919L6.17886 39.1902Z" fill="#151515"/>
</svg>
