<svg width="30" height="30" viewBox="0 0 30 30" fill="none" xmlns="http://www.w3.org/2000/svg">
<path d="M29.2929 24.2513C29.6834 24.6418 29.6834 25.275 29.2929 25.6655L25.6655 29.2929C25.275 29.6834 24.6418 29.6834 24.2513 29.2929L15.7071 20.7487C15.3166 20.3582 14.6834 20.3582 14.2929 20.7487L5.7487 29.2929C5.35818 29.6834 4.72501 29.6834 4.33449 29.2929L0.707106 25.6655C0.316582 25.275 0.316582 24.6418 0.707106 24.2513L9.2513 15.7071C9.64182 15.3166 9.64182 14.6834 9.2513 14.2929L0.707106 5.7487C0.316582 5.35818 0.316582 4.72501 0.707107 4.33449L4.33449 0.707106C4.72501 0.316582 5.35818 0.316582 5.7487 0.707107L14.2929 9.2513C14.6834 9.64182 15.3166 9.64182 15.7071 9.2513L24.2513 0.707106C24.6418 0.316582 25.275 0.316582 25.6655 0.707106L29.2929 4.33449C29.6834 4.72501 29.6834 5.35818 29.2929 5.7487L20.7487 14.2929C20.3582 14.6834 20.3582 15.3166 20.7487 15.7071L29.2929 24.2513Z" fill="#151515"/>
</svg>
