<svg width="75" height="75" viewBox="0 0 75 75" fill="none" xmlns="http://www.w3.org/2000/svg">
<path d="M64.0165 64.0165C71.0491 56.9839 75 47.4456 75 37.5C75 27.5544 71.0491 18.0161 64.0165 10.9835C56.9839 3.95087 47.4456 -1.15182e-05 37.5 -1.16868e-05C27.5544 -1.15182e-05 18.0161 3.95087 10.9835 10.9835C3.95088 18.0161 8.19955e-07 27.5544 2.00007e-06 37.5C6.51368e-07 47.4456 3.95088 56.9839 10.9835 64.0165C18.0161 71.0491 27.5544 75 37.5 75C47.4456 75 56.9839 71.0491 64.0165 64.0165ZM53.738 35.1566C54.0492 35.1512 54.3583 35.2078 54.6474 35.3231C54.9364 35.4385 55.1996 35.6102 55.4216 35.8284C55.6436 36.0465 55.8199 36.3067 55.9402 36.5937C56.0605 36.8807 56.1225 37.1888 56.1225 37.5C56.1225 37.8112 56.0605 38.1193 55.9402 38.4063C55.8199 38.6933 55.6436 38.9535 55.4216 39.1716C55.1996 39.3897 54.9364 39.5615 54.6474 39.6768C54.3583 39.7922 54.0492 39.8488 53.738 39.8434L26.5851 39.8434L35.7599 49.0181C36.1994 49.4576 36.4463 50.0538 36.4463 50.6754C36.4463 51.297 36.1994 51.8931 35.7599 52.3327C35.3203 52.7722 34.7242 53.0191 34.1026 53.0191C33.481 53.0191 32.8848 52.7722 32.4453 52.3327L19.2699 39.1573C18.8304 38.7177 18.5834 38.1216 18.5834 37.5C18.5834 36.8784 18.8304 36.2822 19.2699 35.8427L32.4453 22.6673C32.8848 22.2278 33.481 21.9809 34.1026 21.9809C34.7242 21.9809 35.3203 22.2278 35.7599 22.6673C36.1994 23.1069 36.4463 23.703 36.4463 24.3246C36.4463 24.9462 36.1994 25.5423 35.7599 25.9819L26.5851 35.1566L53.738 35.1566Z" fill="#151515"/>
</svg>
