<svg width="65" height="75" viewBox="0 0 65 75" fill="none" xmlns="http://www.w3.org/2000/svg">
<path d="M20 27.5C20.663 27.5 21.2989 27.7634 21.7678 28.2322C22.2366 28.7011 22.5 29.337 22.5 30V60C22.5 60.663 22.2366 61.2989 21.7678 61.7678C21.2989 62.2366 20.663 62.5 20 62.5C19.337 62.5 18.7011 62.2366 18.2322 61.7678C17.7634 61.2989 17.5 60.663 17.5 60V30C17.5 29.337 17.7634 28.7011 18.2322 28.2322C18.7011 27.7634 19.337 27.5 20 27.5ZM32.5 27.5C33.163 27.5 33.7989 27.7634 34.2678 28.2322C34.7366 28.7011 35 29.337 35 30V60C35 60.663 34.7366 61.2989 34.2678 61.7678C33.7989 62.2366 33.163 62.5 32.5 62.5C31.837 62.5 31.2011 62.2366 30.7322 61.7678C30.2634 61.2989 30 60.663 30 60V30C30 29.337 30.2634 28.7011 30.7322 28.2322C31.2011 27.7634 31.837 27.5 32.5 27.5ZM47.5 30C47.5 29.337 47.2366 28.7011 46.7678 28.2322C46.2989 27.7634 45.663 27.5 45 27.5C44.337 27.5 43.7011 27.7634 43.2322 28.2322C42.7634 28.7011 42.5 29.337 42.5 30V60C42.5 60.663 42.7634 61.2989 43.2322 61.7678C43.7011 62.2366 44.337 62.5 45 62.5C45.663 62.5 46.2989 62.2366 46.7678 61.7678C47.2366 61.2989 47.5 60.663 47.5 60V30Z" fill="#9672FF"/>
<path fill-rule="evenodd" clip-rule="evenodd" d="M65 15C65 16.3261 64.4732 17.5979 63.5355 18.5355C62.5979 19.4732 61.3261 20 60 20H57.5V65C57.5 67.6522 56.4464 70.1957 54.5711 72.0711C52.6957 73.9464 50.1522 75 47.5 75H17.5C14.8478 75 12.3043 73.9464 10.4289 72.0711C8.55357 70.1957 7.5 67.6522 7.5 65V20H5C3.67392 20 2.40215 19.4732 1.46447 18.5355C0.526784 17.5979 0 16.3261 0 15V10C0 8.67392 0.526784 7.40215 1.46447 6.46447C2.40215 5.52678 3.67392 5 5 5H22.5C22.5 3.67392 23.0268 2.40215 23.9645 1.46447C24.9021 0.526784 26.1739 0 27.5 0H37.5C38.8261 0 40.0979 0.526784 41.0355 1.46447C41.9732 2.40215 42.5 3.67392 42.5 5H60C61.3261 5 62.5979 5.52678 63.5355 6.46447C64.4732 7.40215 65 8.67392 65 10V15ZM13.09 20L12.5 20.295V65C12.5 66.3261 13.0268 67.5978 13.9645 68.5355C14.9021 69.4732 16.1739 70 17.5 70H47.5C48.8261 70 50.0979 69.4732 51.0355 68.5355C51.9732 67.5978 52.5 66.3261 52.5 65V20.295L51.91 20H13.09ZM5 15V10H60V15H5Z" fill="#9672FF"/>
</svg>
